# Blender v3.1.2 OBJ File: ''
# www.blender.org
o Plane_Plane.001
v -0.226745 -0.773476 5.273040
v 0.093265 -0.773476 5.273040
v -0.226745 -0.773476 -0.999337
v 0.093265 -0.773476 -0.999337
v -0.226745 1.226524 5.273040
v 0.093265 1.226524 5.273040
v -0.226745 1.226524 -0.999337
v 0.093265 1.226524 -0.999337
v -0.231330 1.911250 -0.999337
v 0.088679 1.912120 -0.999337
v -0.222157 -1.459942 -0.999337
v 0.097851 -1.459072 -0.999337
v -0.226744 0.225654 -3.305776
v 0.093265 0.226524 -3.305776
v -0.226745 0.226524 5.273040
v 0.093265 0.226524 5.273040
v -0.226745 -0.773476 2.136851
v 0.093265 -0.773476 2.136851
v -0.226745 0.226524 -0.999337
v 0.093265 0.226524 -0.999337
v -0.226745 1.226524 2.136851
v 0.093265 1.226524 2.136851
v 0.093265 0.226524 2.136851
v -0.226745 0.226524 2.136851
v -0.226745 -0.273476 5.273040
v 0.093265 -0.273476 5.273040
v -0.226745 -0.773476 0.568757
v 0.093265 -0.773476 0.568757
v -0.226745 0.726524 -0.999337
v 0.093265 0.726524 -0.999337
v -0.226745 1.226524 3.704946
v 0.093265 1.226524 3.704946
v -0.226745 0.726524 5.273040
v 0.093265 0.726524 5.273040
v -0.226745 -0.773476 3.704946
v 0.093265 -0.773476 3.704946
v -0.226745 -0.273476 -0.999337
v 0.093265 -0.273476 -0.999337
v -0.226745 1.226524 0.568757
v 0.093265 1.226524 0.568757
v 0.093265 0.726524 2.136851
v -0.226745 0.726524 2.136851
v 0.093265 -0.273476 2.136851
v -0.226745 -0.273476 2.136851
v 0.093265 0.226524 3.704946
v -0.226745 0.226524 3.704946
v 0.093265 0.226524 0.568757
v -0.226745 0.226524 0.568757
v -0.226745 -0.273476 0.568757
v 0.093265 -0.273476 0.568757
v -0.226745 -0.273476 3.704946
v 0.093265 -0.273476 3.704946
v -0.226745 0.726524 3.704946
v 0.093265 0.726524 3.704946
v -0.226745 0.726524 0.568757
v 0.093265 0.726524 0.568757
v -0.226744 0.225654 -0.999337
v 0.093265 0.226524 -0.999337
v -0.224450 -0.617144 -2.152556
v 0.095558 -0.616274 -2.152556
v -0.229037 1.068452 -2.152556
v 0.090972 1.069322 -2.152556
v 0.093265 0.226524 -2.152556
v -0.226744 0.225654 -2.152556
v -0.224450 -0.617144 -0.999337
v 0.095558 -0.616274 -0.999337
v -0.225597 -0.195745 -2.729166
v 0.094412 -0.194875 -2.729166
v -0.230184 1.489851 -1.575947
v 0.089825 1.490721 -1.575947
v -0.229037 1.068452 -0.999337
v 0.090972 1.069322 -0.999337
v -0.223304 -1.038543 -1.575947
v 0.096705 -1.037673 -1.575947
v -0.227890 0.647053 -2.729166
v 0.092119 0.647923 -2.729166
v 0.093265 0.226524 -2.729166
v -0.226744 0.225654 -2.729166
v 0.093265 0.226524 -1.575947
v -0.226744 0.225654 -1.575947
v -0.227890 0.647053 -2.152556
v 0.092119 0.647923 -2.152556
v -0.225597 -0.195745 -2.152556
v 0.094412 -0.194875 -2.152556
v 0.094985 -0.405574 -1.575947
v -0.225024 -0.406445 -1.575947
v 0.091545 0.858623 -1.575947
v -0.228464 0.857752 -1.575947
v 0.092692 0.437224 -2.729166
v -0.227317 0.436353 -2.729166
v 0.093838 0.015825 -2.729166
v -0.226170 0.014954 -2.729166
v -0.223304 -1.038543 -0.999337
v 0.096705 -1.037673 -0.999337
v -0.226170 0.014954 -3.017471
v 0.093838 0.015825 -3.017471
v -0.230757 1.700550 -1.287642
v 0.089252 1.701421 -1.287642
v -0.227890 0.647053 -0.999337
v 0.092119 0.647923 -0.999337
v -0.223877 -0.827844 -1.864252
v 0.096132 -0.826973 -1.864252
v -0.228464 0.857752 -2.440861
v 0.091545 0.858623 -2.440861
v 0.093265 0.226524 -3.017471
v -0.226744 0.225654 -3.017471
v 0.093265 0.226524 -1.864252
v -0.226744 0.225654 -1.864252
v -0.228464 0.857752 -2.152556
v 0.091545 0.858623 -2.152556
v -0.226170 0.014954 -2.152556
v 0.093838 0.015825 -2.152556
v -0.225597 -0.195745 -0.999337
v 0.094412 -0.194875 -0.999337
v -0.225024 -0.406445 -2.440861
v 0.094985 -0.405574 -2.440861
v -0.229610 1.279151 -1.864252
v 0.090399 1.280022 -1.864252
v -0.230183 1.489851 -0.999337
v 0.089825 1.490721 -0.999337
v -0.222731 -1.249243 -1.287642
v 0.097278 -1.248372 -1.287642
v -0.227317 0.436353 -3.017471
v 0.092692 0.437224 -3.017471
v 0.093265 0.226524 -2.440861
v -0.226744 0.225654 -2.440861
v 0.093265 0.226524 -1.287642
v -0.226744 0.225654 -1.287642
v -0.227317 0.436353 -2.152556
v 0.092692 0.437224 -2.152556
v -0.225024 -0.406445 -2.152556
v 0.094985 -0.405574 -2.152556
v 0.094698 -0.300224 -1.864252
v -0.225310 -0.301095 -1.864252
v 0.095272 -0.510924 -1.287642
v -0.224737 -0.511795 -1.287642
v 0.094125 -0.089525 -1.575947
v -0.225884 -0.090396 -1.575947
v 0.095845 -0.721623 -1.575947
v -0.224164 -0.722494 -1.575947
v 0.091832 0.753273 -1.864252
v -0.228177 0.752402 -1.864252
v 0.091259 0.963973 -1.287642
v -0.228750 0.963102 -1.287642
v 0.090685 1.174672 -1.575947
v -0.229324 1.173801 -1.575947
v 0.092405 0.542574 -1.575947
v -0.227604 0.541703 -1.575947
v 0.092978 0.331874 -3.017471
v -0.227030 0.331003 -3.017471
v 0.092405 0.542574 -2.440861
v -0.227604 0.541703 -2.440861
v 0.092405 0.542574 -2.729166
v -0.227604 0.541703 -2.729166
v 0.092978 0.331874 -2.729166
v -0.227030 0.331003 -2.729166
v 0.093552 0.121175 -3.017471
v -0.226457 0.120304 -3.017471
v 0.094125 -0.089525 -2.440861
v -0.225884 -0.090396 -2.440861
v 0.093552 0.121175 -2.729166
v -0.226457 0.120304 -2.729166
v 0.094125 -0.089525 -2.729166
v -0.225884 -0.090396 -2.729166
v -0.225454 -0.248420 -2.440861
v 0.094555 -0.247550 -2.440861
v -0.226314 0.067629 -2.440861
v 0.093695 0.068500 -2.440861
v -0.226600 0.172979 -3.017471
v 0.093408 0.173850 -3.017471
v -0.227174 0.383678 -2.440861
v 0.092835 0.384549 -2.440861
v -0.228034 0.699728 -2.440861
v 0.091975 0.700598 -2.440861
v -0.227174 0.383678 -3.017471
v 0.092835 0.384549 -3.017471
v -0.227747 0.594378 -1.287642
v 0.092262 0.595248 -1.287642
v -0.229753 1.331826 -1.287642
v 0.090255 1.332697 -1.287642
v -0.228894 1.015777 -1.864252
v 0.091115 1.016647 -1.864252
v -0.223734 -0.880519 -1.287642
v 0.096275 -0.879648 -1.287642
v -0.225740 -0.143070 -1.287642
v 0.094268 -0.142200 -1.287642
v -0.226027 -0.037721 -1.864252
v 0.093982 -0.036850 -1.864252
v -0.224594 -0.564469 -1.864252
v 0.095415 -0.563599 -1.864252
v -0.227460 0.489028 -1.864252
v 0.092548 0.489899 -1.864252
v -0.226887 0.278329 -3.017471
v 0.093122 0.279199 -3.017471
v -0.226314 0.067629 -3.017471
v 0.093695 0.068500 -3.017471
vt 0.000000 0.000000
vt 0.000000 0.250000
vt 0.000000 0.250000
vt 1.000000 0.000000
vt 0.750000 0.000000
vt 0.750000 0.000000
vt 1.000000 1.000000
vt 1.000000 0.750000
vt 1.000000 0.750000
vt 0.250000 1.000000
vt 0.000000 1.000000
vt 0.250000 1.000000
vt 0.000000 0.000000
vt 0.000000 0.000000
vt 0.000000 0.000000
vt 0.000000 0.000000
vt 0.000000 0.000000
vt 0.000000 0.000000
vt 0.000000 0.000000
vt 0.000000 0.000000
vt 0.000000 0.000000
vt 0.000000 0.500000
vt 0.000000 0.750000
vt 0.000000 0.750000
vt 0.500000 0.000000
vt 0.250000 0.000000
vt 0.250000 0.000000
vt 1.000000 0.500000
vt 1.000000 0.250000
vt 1.000000 0.250000
vt 0.500000 1.000000
vt 0.750000 1.000000
vt 0.750000 1.000000
vt 0.000000 0.500000
vt 0.500000 0.000000
vt 1.000000 0.500000
vt 0.500000 1.000000
vt 0.000000 1.000000
vt 0.000000 0.000000
vt 1.000000 0.000000
vt 1.000000 1.000000
vt 0.000000 0.000000
vt 0.000000 0.000000
vt 0.000000 0.000000
vt 0.000000 0.000000
vt 0.000000 0.000000
vt 0.000000 0.000000
vt 0.000000 0.000000
vt 0.000000 0.000000
vt 0.000000 0.000000
vt 0.000000 0.000000
vt 0.000000 0.000000
vt 0.000000 0.000000
vt 0.000000 0.000000
vt 0.000000 0.000000
vt 0.000000 0.000000
vt 0.000000 0.000000
vt 0.000000 0.000000
vt 0.000000 0.000000
vt 0.000000 0.000000
vt 0.000000 0.000000
vt 0.000000 0.000000
vt 0.000000 0.000000
vt 0.000000 0.000000
vt 0.000000 0.000000
vt 0.000000 0.000000
vt 0.000000 0.000000
vt 0.000000 0.000000
vt 0.000000 0.000000
vt 0.000000 0.000000
vt 0.000000 0.000000
vt 0.000000 0.000000
vt 0.000000 0.000000
vt 0.000000 0.000000
vt 0.000000 0.000000
vt 0.000000 0.000000
vt 0.000000 0.000000
vt 0.000000 0.000000
vt 0.000000 0.000000
vt 0.000000 0.000000
vt 0.750000 0.750000
vt 0.750000 0.750000
vt 0.000000 0.000000
vt 0.000000 0.000000
vt 0.250000 0.750000
vt 0.250000 0.750000
vt 0.250000 0.250000
vt 0.500000 0.500000
vt 0.250000 0.500000
vt 0.500000 0.500000
vt 0.250000 0.250000
vt 0.250000 0.500000
vt 0.750000 0.250000
vt 0.750000 0.500000
vt 0.750000 0.250000
vt 0.750000 0.500000
vt 0.500000 0.250000
vt 0.500000 0.250000
vt 0.500000 0.750000
vt 0.500000 0.750000
vt 0.000000 0.000000
vt 0.000000 0.000000
vt 0.000000 0.000000
vt 0.000000 0.000000
vt 0.000000 0.000000
vt 0.000000 0.000000
vt 0.000000 0.000000
vt 0.000000 0.000000
vt 0.000000 0.000000
vt 0.000000 0.000000
vt 0.000000 0.000000
vt 0.000000 0.000000
vt 0.000000 0.000000
vt 0.000000 0.000000
vt 0.000000 0.000000
vt 0.000000 0.000000
vt 0.000000 0.000000
vt 0.000000 0.000000
vt 0.000000 0.000000
vt 0.000000 0.000000
vt 0.000000 0.000000
vt 0.000000 0.000000
vt 0.000000 0.000000
vt 0.000000 0.000000
vt 0.000000 0.000000
vt 0.000000 0.000000
vt 0.000000 0.000000
vt 0.000000 0.000000
vt 0.000000 0.000000
vt 0.000000 0.000000
vt 0.000000 0.000000
vt 0.000000 0.000000
vt 0.000000 0.000000
vt 0.000000 0.000000
vt 0.000000 0.000000
vt 0.000000 0.000000
vt 0.000000 0.000000
vt 0.000000 0.000000
vt 0.000000 0.000000
vt 0.000000 0.000000
vt 0.000000 0.000000
vt 0.000000 0.000000
vt 0.000000 0.000000
vt 0.000000 0.000000
vt 0.000000 0.000000
vt 0.000000 0.000000
vt 0.000000 0.000000
vt 0.000000 0.000000
vt 0.000000 0.000000
vt 0.000000 0.000000
vt 0.000000 0.000000
vt 0.000000 0.000000
vt 0.000000 0.000000
vt 0.000000 0.000000
vt 0.000000 0.000000
vt 0.000000 0.000000
vt 0.000000 0.000000
vt 0.000000 0.000000
vt 0.000000 0.000000
vt 0.000000 0.000000
vt 0.000000 0.000000
vt 0.000000 0.000000
vt 0.000000 0.000000
vt 0.000000 0.000000
vt 0.000000 0.000000
vt 0.000000 0.000000
vt 0.000000 0.000000
vt 0.000000 0.000000
vt 0.000000 0.000000
vt 0.000000 0.000000
vt 0.000000 0.000000
vt 0.000000 0.000000
vt 0.000000 0.000000
vt 0.000000 0.000000
vt 0.000000 0.000000
vt 0.000000 0.000000
vt 0.000000 0.000000
vt 0.000000 0.000000
vt 0.000000 0.000000
vt 0.000000 0.000000
vt 0.000000 0.000000
vt 0.000000 0.000000
vt 0.000000 0.000000
vt 0.000000 0.000000
vt 0.000000 0.000000
vt 0.000000 0.000000
vt 0.000000 0.000000
vt 0.000000 0.000000
vt 0.000000 0.000000
vt 0.000000 0.000000
vt 0.000000 0.000000
vt 0.000000 0.000000
vt 0.000000 0.000000
vt 0.000000 0.000000
vt 0.000000 0.000000
vt 0.000000 0.000000
vn 0.0000 0.0000 1.0000
vn 0.0000 -1.0000 0.0000
vn 0.0000 0.0000 -1.0000
vn 0.0000 1.0000 0.0000
vn 0.0022 -0.8074 -0.5900
vn -0.0022 0.8074 -0.5900
vn 1.0000 0.0000 0.0000
vn -1.0000 0.0000 -0.0000
vn 1.0000 0.0027 -0.0000
vn -1.0000 -0.0027 0.0000
s off
f 1/1/1 26/2/1 25/3/1
f 3/4/2 28/5/2 27/6/2
f 7/7/3 30/8/3 29/9/3
f 31/10/4 6/11/4 32/12/4
f 11/13/1 94/14/1 93/15/1
f 13/16/5 96/17/5 95/18/5
f 9/19/6 98/20/6 97/21/6
f 15/22/1 34/23/1 33/24/1
f 17/25/2 36/26/2 35/27/2
f 19/28/3 38/29/3 37/30/3
f 21/31/4 40/32/4 39/33/4
f 25/3/1 16/34/1 15/22/1
f 17/25/2 28/5/2 18/35/2
f 29/9/3 20/36/3 19/28/3
f 21/31/4 32/12/4 22/37/4
f 33/24/1 6/11/1 5/38/1
f 35/27/2 2/39/2 1/1/2
f 37/30/3 4/40/3 3/4/3
f 7/7/4 40/32/4 8/41/4
f 57/42/1 100/43/1 99/44/1
f 101/45/5 60/46/5 102/47/5
f 103/48/6 62/49/6 104/50/6
f 65/51/1 114/52/1 113/53/1
f 67/54/5 116/55/5 115/56/5
f 69/57/6 118/58/6 117/59/6
f 71/60/1 120/61/1 119/62/1
f 121/63/5 74/64/5 122/65/5
f 75/66/6 124/67/6 123/68/6
f 65/51/1 94/14/1 66/69/1
f 95/18/5 68/70/5 67/54/5
f 97/21/6 70/71/6 69/57/6
f 99/44/1 72/72/1 71/60/1
f 73/73/5 102/47/5 74/64/5
f 103/48/6 76/74/6 75/66/6
f 113/53/1 58/75/1 57/42/1
f 115/56/5 60/46/5 59/76/5
f 117/59/6 62/49/6 61/77/6
f 119/62/1 10/78/1 9/19/1
f 11/13/5 122/65/5 12/79/5
f 123/68/6 14/80/6 13/16/6
f 56/81/7 8/41/7 40/32/7
f 7/7/8 55/82/8 39/33/8
f 14/80/9 196/83/9 96/17/9
f 13/16/10 95/18/10 195/84/10
f 54/85/7 22/37/7 32/12/7
f 21/31/8 53/86/8 31/10/8
f 52/87/7 23/88/7 45/89/7
f 24/90/8 51/91/8 46/92/8
f 50/93/7 20/36/7 47/94/7
f 19/28/8 49/95/8 48/96/8
f 43/97/7 47/94/7 23/88/7
f 48/96/8 44/98/8 24/90/8
f 18/35/7 50/93/7 43/97/7
f 49/95/8 17/25/8 44/98/8
f 28/5/7 38/29/7 50/93/7
f 37/30/8 27/6/8 49/95/8
f 26/2/7 45/89/7 16/34/7
f 46/92/8 25/3/8 15/22/8
f 2/39/7 52/87/7 26/2/7
f 51/91/8 1/1/8 25/3/8
f 36/26/7 43/97/7 52/87/7
f 44/98/8 35/27/8 51/91/8
f 34/23/7 32/12/7 6/11/7
f 31/10/8 33/24/8 5/38/8
f 16/34/7 54/85/7 34/23/7
f 53/86/8 15/22/8 33/24/8
f 45/89/7 41/99/7 54/85/7
f 42/100/8 46/92/8 53/86/8
f 41/99/7 40/32/7 22/37/7
f 39/33/8 42/100/8 21/31/8
f 23/88/7 56/81/7 41/99/7
f 55/82/8 24/90/8 42/100/8
f 47/94/7 30/8/7 56/81/7
f 29/9/8 48/96/8 55/82/8
f 14/80/9 194/101/9 105/102/9
f 13/16/10 106/103/10 193/104/10
f 130/105/9 107/106/9 63/107/9
f 129/108/10 108/109/10 191/110/10
f 190/111/9 60/46/9 132/112/9
f 59/76/10 189/113/10 131/114/10
f 188/115/9 84/116/9 112/117/9
f 83/118/10 187/119/10 111/120/10
f 186/121/9 85/122/9 137/123/9
f 86/124/10 185/125/10 138/126/10
f 184/127/9 74/64/9 139/128/9
f 73/73/10 183/129/10 140/130/10
f 110/131/9 141/132/9 82/133/9
f 109/134/10 142/135/10 181/136/10
f 145/137/9 143/138/9 87/139/9
f 146/140/10 144/141/10 179/142/10
f 147/143/9 127/144/9 79/145/9
f 148/146/10 128/147/10 177/148/10
f 14/80/9 176/149/9 149/150/9
f 13/16/10 150/151/10 175/152/10
f 153/153/9 151/154/9 89/155/9
f 154/156/10 152/157/10 173/158/10
f 155/159/9 125/160/9 77/161/9
f 156/162/10 126/163/10 171/164/10
f 14/80/9 170/165/9 157/166/9
f 13/16/10 158/167/10 169/168/10
f 168/169/9 91/170/9 161/171/9
f 92/172/10 167/173/10 162/174/10
f 166/175/9 68/70/9 163/176/9
f 67/54/10 165/177/10 164/178/10
f 159/179/9 163/176/9 91/170/9
f 164/178/10 160/180/10 92/172/10
f 84/116/9 166/175/9 159/179/9
f 165/177/10 83/118/10 160/180/10
f 132/112/9 116/55/9 166/175/9
f 115/56/10 131/114/10 165/177/10
f 125/160/9 161/171/9 77/161/9
f 162/174/10 126/163/10 78/181/10
f 63/107/9 168/169/9 125/160/9
f 167/173/10 64/182/10 126/163/10
f 112/117/9 159/179/9 168/169/9
f 160/180/10 111/120/10 167/173/10
f 14/80/9 105/102/9 170/165/9
f 13/16/10 169/168/10 106/103/10
f 77/161/9 170/165/9 105/102/9
f 169/168/10 78/181/10 106/103/10
f 161/171/9 157/166/9 170/165/9
f 158/167/10 162/174/10 169/168/10
f 89/155/9 172/183/9 155/159/9
f 90/184/10 171/164/10 152/157/10
f 151/154/9 130/105/9 172/183/9
f 152/157/10 129/108/10 81/185/10
f 172/183/9 63/107/9 125/160/9
f 171/164/10 64/182/10 129/108/10
f 76/74/9 174/186/9 153/153/9
f 75/66/10 173/158/10 103/48/10
f 104/50/9 110/131/9 174/186/9
f 103/48/10 109/134/10 61/77/10
f 174/186/9 82/133/9 151/154/9
f 173/158/10 81/185/10 109/134/10
f 14/80/9 124/67/9 176/149/9
f 13/16/10 175/152/10 123/68/10
f 124/67/9 153/153/9 176/149/9
f 123/68/10 154/156/10 75/66/10
f 176/149/9 89/155/9 149/150/9
f 175/152/10 90/184/10 154/156/10
f 87/139/9 178/187/9 147/143/9
f 88/188/10 177/148/10 144/141/10
f 143/138/9 100/43/9 178/187/9
f 144/141/10 99/44/10 71/60/10
f 178/187/9 58/75/9 127/144/9
f 177/148/10 57/42/10 99/44/10
f 70/71/9 180/189/9 145/137/9
f 69/57/10 179/142/10 97/21/10
f 98/20/9 120/61/9 180/189/9
f 97/21/10 119/62/10 9/19/10
f 180/189/9 72/72/9 143/138/9
f 179/142/10 71/60/10 119/62/10
f 62/49/9 182/190/9 110/131/9
f 61/77/10 181/136/10 117/59/10
f 118/58/9 145/137/9 182/190/9
f 117/59/10 146/140/10 69/57/10
f 182/190/9 87/139/9 141/132/9
f 181/136/10 88/188/10 146/140/10
f 135/191/9 139/128/9 85/122/9
f 140/130/10 136/192/10 86/124/10
f 66/69/9 184/127/9 135/191/9
f 183/129/10 65/51/10 136/192/10
f 94/14/9 122/65/9 184/127/9
f 121/63/10 93/15/10 183/129/10
f 127/144/9 137/123/9 79/145/9
f 138/126/10 128/147/10 80/193/10
f 58/75/9 186/121/9 127/144/9
f 185/125/10 57/42/10 128/147/10
f 114/52/9 135/191/9 186/121/9
f 136/192/10 113/53/10 185/125/10
f 107/106/9 112/117/9 63/107/9
f 111/120/10 108/109/10 64/182/10
f 79/145/9 188/115/9 107/106/9
f 187/119/10 80/193/10 108/109/10
f 137/123/9 133/194/9 188/115/9
f 134/195/10 138/126/10 187/119/10
f 133/194/9 132/112/9 84/116/9
f 131/114/10 134/195/10 83/118/10
f 85/122/9 190/111/9 133/194/9
f 189/113/10 86/124/10 134/195/10
f 139/128/9 102/47/9 190/111/9
f 101/45/10 140/130/10 189/113/10
f 82/133/9 192/196/9 130/105/9
f 81/185/10 191/110/10 142/135/10
f 141/132/9 147/143/9 192/196/9
f 142/135/10 148/146/10 88/188/10
f 192/196/9 79/145/9 107/106/9
f 191/110/10 80/193/10 148/146/10
f 14/80/9 149/150/9 194/101/9
f 13/16/10 193/104/10 150/151/10
f 149/150/9 155/159/9 194/101/9
f 150/151/10 156/162/10 90/184/10
f 194/101/9 77/161/9 105/102/9
f 193/104/10 78/181/10 156/162/10
f 14/80/9 157/166/9 196/83/9
f 13/16/10 195/84/10 158/167/10
f 91/170/9 196/83/9 157/166/9
f 195/84/10 92/172/10 158/167/10
f 163/176/9 96/17/9 196/83/9
f 95/18/10 164/178/10 195/84/10
f 1/1/1 2/39/1 26/2/1
f 3/4/2 4/40/2 28/5/2
f 7/7/3 8/41/3 30/8/3
f 31/10/4 5/38/4 6/11/4
f 11/13/1 12/79/1 94/14/1
f 13/16/5 14/80/5 96/17/5
f 9/19/6 10/78/6 98/20/6
f 15/22/1 16/34/1 34/23/1
f 17/25/2 18/35/2 36/26/2
f 19/28/3 20/36/3 38/29/3
f 21/31/4 22/37/4 40/32/4
f 25/3/1 26/2/1 16/34/1
f 17/25/2 27/6/2 28/5/2
f 29/9/3 30/8/3 20/36/3
f 21/31/4 31/10/4 32/12/4
f 33/24/1 34/23/1 6/11/1
f 35/27/2 36/26/2 2/39/2
f 37/30/3 38/29/3 4/40/3
f 7/7/4 39/33/4 40/32/4
f 57/42/1 58/75/1 100/43/1
f 101/45/5 59/76/5 60/46/5
f 103/48/6 61/77/6 62/49/6
f 65/51/1 66/69/1 114/52/1
f 67/54/5 68/70/5 116/55/5
f 69/57/6 70/71/6 118/58/6
f 71/60/1 72/72/1 120/61/1
f 121/63/5 73/73/5 74/64/5
f 75/66/6 76/74/6 124/67/6
f 65/51/1 93/15/1 94/14/1
f 95/18/5 96/17/5 68/70/5
f 97/21/6 98/20/6 70/71/6
f 99/44/1 100/43/1 72/72/1
f 73/73/5 101/45/5 102/47/5
f 103/48/6 104/50/6 76/74/6
f 113/53/1 114/52/1 58/75/1
f 115/56/5 116/55/5 60/46/5
f 117/59/6 118/58/6 62/49/6
f 119/62/1 120/61/1 10/78/1
f 11/13/5 121/63/5 122/65/5
f 123/68/6 124/67/6 14/80/6
f 56/81/7 30/8/7 8/41/7
f 7/7/8 29/9/8 55/82/8
f 54/85/7 41/99/7 22/37/7
f 21/31/8 42/100/8 53/86/8
f 52/87/7 43/97/7 23/88/7
f 24/90/8 44/98/8 51/91/8
f 50/93/7 38/29/7 20/36/7
f 19/28/8 37/30/8 49/95/8
f 43/97/7 50/93/7 47/94/7
f 48/96/8 49/95/8 44/98/8
f 18/35/7 28/5/7 50/93/7
f 49/95/8 27/6/8 17/25/8
f 28/5/7 4/40/7 38/29/7
f 37/30/8 3/4/8 27/6/8
f 26/2/7 52/87/7 45/89/7
f 46/92/8 51/91/8 25/3/8
f 2/39/7 36/26/7 52/87/7
f 51/91/8 35/27/8 1/1/8
f 36/26/7 18/35/7 43/97/7
f 44/98/8 17/25/8 35/27/8
f 34/23/7 54/85/7 32/12/7
f 31/10/8 53/86/8 33/24/8
f 16/34/7 45/89/7 54/85/7
f 53/86/8 46/92/8 15/22/8
f 45/89/7 23/88/7 41/99/7
f 42/100/8 24/90/8 46/92/8
f 41/99/7 56/81/7 40/32/7
f 39/33/8 55/82/8 42/100/8
f 23/88/7 47/94/7 56/81/7
f 55/82/8 48/96/8 24/90/8
f 47/94/7 20/36/7 30/8/7
f 29/9/8 19/28/8 48/96/8
f 130/105/9 192/196/9 107/106/9
f 129/108/10 64/182/10 108/109/10
f 190/111/9 102/47/9 60/46/9
f 59/76/10 101/45/10 189/113/10
f 188/115/9 133/194/9 84/116/9
f 83/118/10 134/195/10 187/119/10
f 186/121/9 135/191/9 85/122/9
f 86/124/10 136/192/10 185/125/10
f 184/127/9 122/65/9 74/64/9
f 73/73/10 121/63/10 183/129/10
f 110/131/9 182/190/9 141/132/9
f 109/134/10 81/185/10 142/135/10
f 145/137/9 180/189/9 143/138/9
f 146/140/10 88/188/10 144/141/10
f 147/143/9 178/187/9 127/144/9
f 148/146/10 80/193/10 128/147/10
f 153/153/9 174/186/9 151/154/9
f 154/156/10 90/184/10 152/157/10
f 155/159/9 172/183/9 125/160/9
f 156/162/10 78/181/10 126/163/10
f 168/169/9 159/179/9 91/170/9
f 92/172/10 160/180/10 167/173/10
f 166/175/9 116/55/9 68/70/9
f 67/54/10 115/56/10 165/177/10
f 159/179/9 166/175/9 163/176/9
f 164/178/10 165/177/10 160/180/10
f 84/116/9 132/112/9 166/175/9
f 165/177/10 131/114/10 83/118/10
f 132/112/9 60/46/9 116/55/9
f 115/56/10 59/76/10 131/114/10
f 125/160/9 168/169/9 161/171/9
f 162/174/10 167/173/10 126/163/10
f 63/107/9 112/117/9 168/169/9
f 167/173/10 111/120/10 64/182/10
f 112/117/9 84/116/9 159/179/9
f 160/180/10 83/118/10 111/120/10
f 77/161/9 161/171/9 170/165/9
f 169/168/10 162/174/10 78/181/10
f 161/171/9 91/170/9 157/166/9
f 158/167/10 92/172/10 162/174/10
f 89/155/9 151/154/9 172/183/9
f 90/184/10 156/162/10 171/164/10
f 151/154/9 82/133/9 130/105/9
f 152/157/10 171/164/10 129/108/10
f 172/183/9 130/105/9 63/107/9
f 171/164/10 126/163/10 64/182/10
f 76/74/9 104/50/9 174/186/9
f 75/66/10 154/156/10 173/158/10
f 104/50/9 62/49/9 110/131/9
f 103/48/10 173/158/10 109/134/10
f 174/186/9 110/131/9 82/133/9
f 173/158/10 152/157/10 81/185/10
f 124/67/9 76/74/9 153/153/9
f 123/68/10 175/152/10 154/156/10
f 176/149/9 153/153/9 89/155/9
f 175/152/10 150/151/10 90/184/10
f 87/139/9 143/138/9 178/187/9
f 88/188/10 148/146/10 177/148/10
f 143/138/9 72/72/9 100/43/9
f 144/141/10 177/148/10 99/44/10
f 178/187/9 100/43/9 58/75/9
f 177/148/10 128/147/10 57/42/10
f 70/71/9 98/20/9 180/189/9
f 69/57/10 146/140/10 179/142/10
f 98/20/9 10/78/9 120/61/9
f 97/21/10 179/142/10 119/62/10
f 180/189/9 120/61/9 72/72/9
f 179/142/10 144/141/10 71/60/10
f 62/49/9 118/58/9 182/190/9
f 61/77/10 109/134/10 181/136/10
f 118/58/9 70/71/9 145/137/9
f 117/59/10 181/136/10 146/140/10
f 182/190/9 145/137/9 87/139/9
f 181/136/10 142/135/10 88/188/10
f 135/191/9 184/127/9 139/128/9
f 140/130/10 183/129/10 136/192/10
f 66/69/9 94/14/9 184/127/9
f 183/129/10 93/15/10 65/51/10
f 94/14/9 12/79/9 122/65/9
f 121/63/10 11/13/10 93/15/10
f 127/144/9 186/121/9 137/123/9
f 138/126/10 185/125/10 128/147/10
f 58/75/9 114/52/9 186/121/9
f 185/125/10 113/53/10 57/42/10
f 114/52/9 66/69/9 135/191/9
f 136/192/10 65/51/10 113/53/10
f 107/106/9 188/115/9 112/117/9
f 111/120/10 187/119/10 108/109/10
f 79/145/9 137/123/9 188/115/9
f 187/119/10 138/126/10 80/193/10
f 137/123/9 85/122/9 133/194/9
f 134/195/10 86/124/10 138/126/10
f 133/194/9 190/111/9 132/112/9
f 131/114/10 189/113/10 134/195/10
f 85/122/9 139/128/9 190/111/9
f 189/113/10 140/130/10 86/124/10
f 139/128/9 74/64/9 102/47/9
f 101/45/10 73/73/10 140/130/10
f 82/133/9 141/132/9 192/196/9
f 81/185/10 129/108/10 191/110/10
f 141/132/9 87/139/9 147/143/9
f 142/135/10 191/110/10 148/146/10
f 192/196/9 147/143/9 79/145/9
f 191/110/10 108/109/10 80/193/10
f 149/150/9 89/155/9 155/159/9
f 150/151/10 193/104/10 156/162/10
f 194/101/9 155/159/9 77/161/9
f 193/104/10 106/103/10 78/181/10
f 91/170/9 163/176/9 196/83/9
f 195/84/10 164/178/10 92/172/10
f 163/176/9 68/70/9 96/17/9
f 95/18/10 67/54/10 164/178/10
